# xmcd
#
# Track frame offsets:
#	150
#	22417
#	37927
#	54156
#	92204
#	117815
#	136822
#	155778
#	174342
#	195002
#	207771
#	230375
#
# Disc length: 3287 seconds
#
# Revision: 1
# Processed by: cddbd v1.5.2PL0 Copyright (c) Steve Scherf et al.
# Submitted via: audiograbber 1.83.01
#
DISCID=920cd50c
DTITLE=Trigger Hippy - Full Circle and Then Some
DYEAR=2019
DGENRE=Country
TTITLE0=Don't Wanna Bring You Down
TTITLE1=The Butcher's Daughter
TTITLE2=Strung out on the Pain
TTITLE3=Born to Be Blue
TTITLE4=The Door
TTITLE5=Full Circle and Then Some
TTITLE6=Dandelion
TTITLE7=Goddamn Hurricane
TTITLE8=Long Lost Friend
TTITLE9=One of Them
TTITLE10=Low Down Country Song
TTITLE11=Paving the Road
EXTD=
EXTT0=
EXTT1=
EXTT2=
EXTT3=
EXTT4=
EXTT5=
EXTT6=
EXTT7=
EXTT8=
EXTT9=
EXTT10=
EXTT11=
PLAYORDER=
